<svg width="16" height="16" xmlns="http://www.w3.org/2000/svg">

 <g>
  <title>Layer 1</title>
  <g stroke="null" id="svg_3">
   <path stroke="#e5e5e5" stroke-width="0.1" id="svg_1" d="m12.417651,7.0183c-0.348503,0 -0.678355,0.066756 -0.995443,0.164926l-0.583131,-1.07398l1.401868,-3.017747l0.13253,-0.283711c0.070683,-0.151182 0.059883,-0.329851 -0.030434,-0.471216c-0.090316,-0.140383 -0.247388,-0.226773 -0.414277,-0.226773l-0.315125,0l-2.141088,0c-0.270949,0 -0.49085,0.220882 -0.49085,0.49085c0,0.271931 0.219901,0.49085 0.49085,0.49085l1.68558,0l-0.912983,1.963401l-5.188285,0c-0.213029,0 -0.400534,0.136456 -0.466308,0.337705l-0.547788,1.671835c-0.153146,-0.019634 -0.303346,-0.04614 -0.460418,-0.04614c-1.897626,0 -3.435951,1.537343 -3.435951,3.435951s1.538325,3.43595 3.435951,3.43595s3.435951,-1.537342 3.435951,-3.43595c0,-1.395978 -0.836409,-2.590708 -2.030156,-3.129661l0.209102,-0.638105c0.125657,-0.38679 0.486923,-0.649886 0.895311,-0.649886l3.56848,0l0.068719,0.128603l0.587056,1.070054l0.197322,0.360283c-0.922798,0.617489 -1.532434,1.665945 -1.532434,2.858712c0,1.898608 1.538325,3.43595 3.435951,3.43595s3.43595,-1.537342 3.43595,-3.43595s-1.538324,-3.435951 -3.43595,-3.435951zm-6.381052,3.435951c0,1.353765 -1.100486,2.45425 -2.45425,2.45425s-2.454251,-1.100486 -2.454251,-2.45425s1.100486,-2.454251 2.454251,-2.454251c0.051048,0 0.09817,0.011781 0.147255,0.015707l-0.486923,1.483349c-0.083444,0.257206 0.055957,0.533064 0.312181,0.619453c0.123694,0.040251 0.259168,0.030434 0.375991,-0.026506c0.115841,-0.059883 0.203212,-0.162962 0.244443,-0.285673l0.502631,-1.535379c0.80303,0.40446 1.358673,1.226143 1.358673,2.183301zm6.381052,2.45425c-1.353765,0 -2.454251,-1.100486 -2.454251,-2.45425c0,-0.81874 0.408388,-1.541268 1.027841,-1.987944l1.250687,2.285398c0.127621,0.229719 0.413296,0.320035 0.648904,0.203213l0.001964,-0.001963c0.118785,-0.059883 0.209101,-0.164926 0.249352,-0.291566s0.026505,-0.265059 -0.036324,-0.381879l-1.207491,-2.222571c0.167871,-0.036323 0.34065,-0.056939 0.51932,-0.056939c1.353765,0 2.45425,1.100486 2.45425,2.454251s-1.100486,2.45425 -2.45425,2.45425z" fill="#000000"/>
   <path stroke="#e5e5e5" stroke-width="0.1" id="svg_2" d="m3.582349,4.073199l1.47255,0c0.738238,0 1.173132,-0.251315 1.607043,-0.638105c0.060865,-0.053994 0.0805,-0.140384 0.05203,-0.216956s-0.102097,-0.126639 -0.183578,-0.126639l-2.948046,0c-0.270949,0 -0.49085,0.220883 -0.49085,0.49085c0,0.271931 0.219901,0.49085 0.49085,0.49085z" fill="#000000"/>
  </g>
 </g>
</svg>