<?xml version="1.0" encoding="UTF-8"?>
<!-- Generator: Adobe Illustrator 15.1.0, SVG Export Plug-In  -->
<!DOCTYPE svg PUBLIC "-//W3C//DTD SVG 1.1//EN" "http://www.w3.org/Graphics/SVG/1.1/DTD/svg11.dtd" [
	<!ENTITY ns_flows "http://ns.adobe.com/Flows/1.0/">
]>
<svg version="1.1" xmlns="http://www.w3.org/2000/svg" xmlns:xlink="http://www.w3.org/1999/xlink" xmlns:a="http://ns.adobe.com/AdobeSVGViewerExtensions/3.0/" x="0px" y="0px" width="16px" height="16px" viewBox="0 -2 16 16" overflow="visible" enable-background="new 0 -2 16 16" xml:space="preserve">
<defs>
</defs>
<path fill="#456DA7" d="M12.5,5c-0.355,0-0.691,0.068-1.014,0.168l-0.594-1.094L12.32,1l0.135-0.289  c0.072-0.154,0.061-0.336-0.031-0.48C12.332,0.088,12.172,0,12.002,0h-0.321H9.5C9.224,0,9,0.225,9,0.5C9,0.777,9.224,1,9.5,1h1.717  l-0.93,2H5.002C4.785,3,4.594,3.139,4.527,3.344L3.969,5.047C3.813,5.027,3.66,5,3.5,5C1.567,5,0,6.566,0,8.5S1.567,12,3.5,12  S7,10.434,7,8.5c0-1.422-0.852-2.639-2.068-3.188l0.213-0.65C5.273,4.268,5.641,4,6.057,4h3.635l0.07,0.131l0.598,1.09l0.201,0.367  C9.621,6.217,9,7.285,9,8.5c0,1.934,1.567,3.5,3.5,3.5S16,10.434,16,8.5S14.433,5,12.5,5z M6,8.5C6,9.879,4.879,11,3.5,11  S1,9.879,1,8.5S2.121,6,3.5,6c0.052,0,0.1,0.012,0.15,0.016L3.154,7.527C3.069,7.789,3.211,8.07,3.472,8.158  c0.126,0.041,0.264,0.031,0.383-0.027C3.973,8.07,4.062,7.965,4.104,7.84l0.512-1.564C5.434,6.688,6,7.525,6,8.5z M12.5,11  C11.121,11,10,9.879,10,8.5c0-0.834,0.416-1.57,1.047-2.025l1.274,2.328c0.13,0.234,0.421,0.326,0.661,0.207l0.002-0.002  c0.121-0.061,0.213-0.168,0.254-0.297s0.027-0.27-0.037-0.389l-1.23-2.264C12.142,6.021,12.318,6,12.5,6C13.879,6,15,7.121,15,8.5  S13.879,11,12.5,11z"/>
<path fill="#456DA7" d="M3.5,2H5c0.752,0,1.195-0.256,1.637-0.65c0.062-0.055,0.082-0.143,0.053-0.221S6.586,1,6.503,1H3.5  C3.224,1,3,1.225,3,1.5C3,1.777,3.224,2,3.5,2z"/>
</svg>