<?xml version="1.0" encoding="UTF-8"?>
<!-- Generator: Adobe Illustrator 15.1.0, SVG Export Plug-In  -->
<!DOCTYPE svg PUBLIC "-//W3C//DTD SVG 1.1//EN" "http://www.w3.org/Graphics/SVG/1.1/DTD/svg11.dtd" [
	<!ENTITY ns_flows "http://ns.adobe.com/Flows/1.0/">
]>
<svg version="1.1" xmlns="http://www.w3.org/2000/svg" xmlns:xlink="http://www.w3.org/1999/xlink" xmlns:a="http://ns.adobe.com/AdobeSVGViewerExtensions/3.0/" x="0px" y="0px" width="16px" height="16px" viewBox="-1 -2.145 16 16" overflow="visible" enable-background="new -1 -2.145 16 16" xml:space="preserve">
<defs>
</defs>
<path fill="#456DA7" d="M12.729,4.018l-1.147-2.963C11.367,0.487,10.898,0.004,10.011,0H8.392H5.626H3.979  c-0.883,0.004-1.352,0.487-1.57,1.055L1.262,4.018C0.805,4.077-0.002,4.612,0,5.626v3.773h1.12v1.204  c-0.003,1.485,2.098,1.468,2.098,0V9.399H7h3.772v1.204c0.004,1.468,2.106,1.485,2.107,0V9.399H14V5.626  C13.996,4.612,13.189,4.077,12.729,4.018z M2.483,7.702c-0.693,0.001-1.254-0.576-1.25-1.287C1.229,5.7,1.791,5.122,2.483,5.128  c0.69-0.006,1.25,0.572,1.25,1.288C3.733,7.126,3.174,7.703,2.483,7.702z M7,3.99H6.99H2.456l0.865-2.333  c0.104-0.331,0.267-0.568,0.649-0.574h3.02H7h3.03c0.377,0.006,0.539,0.243,0.648,0.574l0.865,2.333H7z M11.522,7.69  c-0.694,0.002-1.252-0.573-1.256-1.28c0.004-0.713,0.562-1.289,1.256-1.282c0.683-0.006,1.241,0.569,1.244,1.282  C12.764,7.117,12.205,7.692,11.522,7.69z"/>
</svg>