<svg width="16" height="16" xmlns="http://www.w3.org/2000/svg">

 <g>
  <title>Layer 1</title>
  <path stroke="#e5e5e5" stroke-width="0.3" id="svg_1" d="m14.385635,5.952237l-1.278464,-3.302607c-0.239642,-0.633102 -0.762398,-1.171461 -1.751061,-1.17592l-1.804562,0l-3.083028,0l-1.835772,0c-0.984206,0.004458 -1.506961,0.542818 -1.749947,1.17592l-1.278464,3.302607c-0.509379,0.065763 -1.408874,0.662082 -1.406645,1.792302l0,4.205446l1.248369,0l0,1.341997c-0.003344,1.655205 2.338464,1.636256 2.338464,0l0,-1.341997l4.215477,0l4.204331,0l0,1.341997c0.004458,1.636256 2.347381,1.655205 2.348495,0l0,-1.341997l1.249485,0l0,-4.205446c-0.004459,-1.13022 -0.903954,-1.72654 -1.416677,-1.792302zm-11.420352,4.106245c-0.772429,0.001115 -1.397728,-0.642019 -1.39327,-1.434511c-0.004458,-0.79695 0.621955,-1.441197 1.39327,-1.43451c0.769085,-0.006687 1.39327,0.63756 1.39327,1.435626c0,0.791376 -0.62307,1.43451 -1.39327,1.433395zm5.034719,-4.137454l-0.011146,0l-5.053668,0l0.964142,-2.600399c0.11592,-0.368938 0.297603,-0.633101 0.723386,-0.63979l3.366139,0l0.011146,0l3.377285,0c0.42021,0.006688 0.60078,0.270852 0.722272,0.63979l0.964142,2.600399l-5.063699,0zm5.040293,4.12408c-0.773543,0.002228 -1.395498,-0.638677 -1.399958,-1.426709c0.004459,-0.794721 0.626414,-1.43674 1.399958,-1.428938c0.761282,-0.006687 1.38324,0.634217 1.386581,1.428938c-0.00223,0.788033 -0.625299,1.428937 -1.386581,1.426709z" fill="#000000"/>
 </g>
</svg>