<?xml version="1.0" encoding="UTF-8"?>
<!-- Generator: Adobe Illustrator 15.1.0, SVG Export Plug-In  -->
<!DOCTYPE svg PUBLIC "-//W3C//DTD SVG 1.1//EN" "http://www.w3.org/Graphics/SVG/1.1/DTD/svg11.dtd" [
	<!ENTITY ns_flows "http://ns.adobe.com/Flows/1.0/">
]>
<svg version="1.1" xmlns="http://www.w3.org/2000/svg" xmlns:xlink="http://www.w3.org/1999/xlink" xmlns:a="http://ns.adobe.com/AdobeSVGViewerExtensions/3.0/" x="0px" y="0px" width="16px" height="16px" viewBox="-3.466 0 16 16" overflow="visible" enable-background="new -3.466 0 16 16" xml:space="preserve">
<defs>
</defs>
<path fill="#456DA7" d="M5.767,1.233C5.767,0.542,5.225,0,4.534,0C3.841,0,3.301,0.542,3.301,1.233c0,0.692,0.54,1.234,1.232,1.234  C5.225,2.467,5.767,1.925,5.767,1.233z M8.79,4.62c0,0-1.472-0.826-2.123-1.168C6.015,3.108,4.72,2.221,3.566,3.247  C3.042,3.713,2.438,6.096,2.438,6.096L0,7.6l0.4,0.558l2.656-0.966l0.742-0.961l0.786,1.733l-1.586,2.78l-1.252,4.674l1.295,0.436  l1.456-4.366l1.077-1.063L7.933,16l1.136-0.524L7.162,8.692c0,0,0.237-0.487,0.237-1.264c0-0.89-0.703-2.347-0.703-2.347  l1.151,0.265l0.258,2.898l0.726,0.068L8.79,4.62z"/>
</svg>