<svg width="16" height="16" xmlns="http://www.w3.org/2000/svg">

 <g>
  <title>Layer 1</title>
  <path stroke="#e5e5e5" stroke-width="0.1" id="svg_1" d="m9.2325,1.233c0,-0.691 -0.542,-1.233 -1.233,-1.233c-0.693,0 -1.233,0.542 -1.233,1.233c0,0.692 0.54,1.234 1.232,1.234c0.692,0 1.234,-0.542 1.234,-1.234zm3.023,3.387c0,0 -1.472,-0.826 -2.123,-1.168c-0.652,-0.344 -1.947,-1.231 -3.101,-0.205c-0.524,0.466 -1.128,2.849 -1.128,2.849l-2.438,1.504l0.4,0.558l2.656,-0.966l0.742,-0.961l0.786,1.733l-1.585999,2.78l-1.252,4.674l1.295,0.436l1.456,-4.366l1.076999,-1.063l2.359001,5.575l1.136,-0.524l-1.907,-6.783999c0,0 0.237,-0.487 0.237,-1.264c0,-0.89 -0.703,-2.347 -0.703,-2.347l1.151,0.265l0.257999,2.898l0.726001,0.068l-0.041,-3.692z" fill="#000000"/>
 </g>
</svg>