<svg width="350.451" height="350.451" xmlns="http://www.w3.org/2000/svg">
 <g>
  <title>Layer 1</title>
  <g id="svg_1">
   <g id="svg_2">
    <path id="svg_3" d="m77.695,208.592499c-17.985001,0 -32.562,14.570999 -32.562,32.55899c0,17.988037 14.576,32.559021 32.562,32.559021c17.991997,0 32.564003,-14.570007 32.564003,-32.559021c0,-17.988998 -14.572006,-32.55899 -32.564003,-32.55899zm0,46.712997c-7.818001,0 -14.153,-6.334 -14.153,-14.154007c0,-7.821991 6.334999,-14.153992 14.153,-14.153992c7.819,0 14.158997,6.332001 14.158997,14.153992c0,7.820007 -6.339996,14.154007 -14.158997,14.154007z"/>
    <path id="svg_4" d="m268.854004,208.592499c-17.986008,0 -32.561005,14.570999 -32.561005,32.55899c0,17.988037 14.574005,32.559021 32.561005,32.559021c17.992004,0 32.563995,-14.570007 32.563995,-32.559021s-14.571991,-32.55899 -32.563995,-32.55899zm0,46.712997c-7.817993,0 -14.154007,-6.334 -14.154007,-14.154007c0,-7.821991 6.336014,-14.153992 14.154007,-14.153992c7.820007,0 14.160004,6.332001 14.160004,14.153992c0,7.820007 -6.339996,14.154007 -14.160004,14.154007z"/>
    <path id="svg_5" d="m330.997986,76.740494l-292.082985,0c-10.701,0 -21.207001,8.57901 -23.348001,19.064011l-11.675,42.617996c-2.141,10.485001 -3.892,27.819 -3.892,38.520996l0,44.751007c0,10.699997 8.756,19.455994 19.457001,19.455994l19.839001,0c0,-21.169998 17.225998,-38.395004 38.397999,-38.395004c21.173996,0 38.401001,17.223007 38.401001,38.395004l114.358002,0c0,-21.169998 17.22699,-38.395004 38.39801,-38.395004c21.175995,0 38.401978,17.223007 38.401978,38.395004l23.740021,0c10.703003,0 19.457001,-8.753998 19.457001,-19.455994l0,-125.498001c0.004974,-10.701004 -8.751007,-19.456009 -19.452026,-19.456009zm-250.141983,82.095001l-45.344002,0l7.186001,-17.018997c1.253998,-2.970001 -0.137001,-6.393997 -3.106003,-7.647995c-2.972,-1.254013 -6.395,0.138 -7.646999,3.106995l-8.91,21.102997c-6.014999,-1.580994 -9.676,-7.214005 -8.437,-13.889999l10.460001,-41.73999c1.465,-7.890999 9.229998,-14.348 17.255999,-14.348l38.543003,0l-0.000999,70.43499l0,0zm86.582993,0l-74.908997,0l0,-70.43499l74.908997,0l0,70.43499zm86.582001,0l-74.90799,0l0,-70.43499l74.90799,0l0,70.43499zm84.502014,-14.591995c0,8.026001 -6.56601,14.593002 -14.593994,14.593002l-58.234009,0l0,-70.435005l58.234009,0c8.027008,0 14.593994,6.567009 14.593994,14.59301l0,41.248993z"/>
   </g>
  </g>
 </g>
</svg>