<?xml version="1.0" encoding="utf-8"?>
<!-- Generator: Adobe Illustrator 15.1.0, SVG Export Plug-In . SVG Version: 6.00 Build 0)  -->
<!DOCTYPE svg PUBLIC "-//W3C//DTD SVG 1.1//EN" "http://www.w3.org/Graphics/SVG/1.1/DTD/svg11.dtd">
<svg version="1.1" id="Ebene_1" xmlns="http://www.w3.org/2000/svg" xmlns:xlink="http://www.w3.org/1999/xlink" x="0px" y="0px"
	 width="194.18px" height="66px" viewBox="0 0 194.18 66" enable-background="new 0 0 194.18 66" xml:space="preserve">
<g>
	<path fill="#FFFFFF" d="M35.168,30.066c-1.721,0-3.117,1.396-3.117,3.117c0,0.902,0.39,1.709,1.003,2.278h-0.027
		c0.363,0.403,0.617,1.289,0.617,2.326c0,1.077-0.275,1.995-0.66,2.373h0.014c-0.59,0.566-0.959,1.359-0.959,2.242
		c0,1.723,1.396,3.117,3.117,3.117c1.721,0,3.117-1.396,3.117-3.117c0-0.883-0.371-1.676-0.961-2.242h0.021
		c-0.385-0.378-0.658-1.296-0.658-2.373c0-1.037,0.255-1.923,0.615-2.326h-0.006c0.613-0.568,1.002-1.376,1.002-2.278
		C38.285,31.461,36.891,30.066,35.168,30.066 M46.539,40.143c-0.387-0.377-0.66-1.295-0.66-2.373c0-1.035,0.252-1.922,0.615-2.326
		h-0.022c0.612-0.568,1.004-1.375,1.004-2.278c0-0.897-0.388-1.7-0.992-2.27h0.012c-0.363-0.402-0.615-1.29-0.615-2.325
		c0-1.078,0.273-1.996,0.66-2.373h-0.012c0.584-0.567,0.949-1.357,0.949-2.235c0-1.722-1.396-3.118-3.117-3.118
		c-0.883,0-1.676,0.371-2.242,0.96V21.79c-0.379,0.386-1.297,0.659-2.375,0.659c-1.035,0-1.922-0.254-2.326-0.615
		c-0.014-0.014-0.028-0.024-0.043-0.037c-0.563-0.584-1.348-0.955-2.225-0.955c-0.904,0-1.711,0.39-2.279,1.004v-0.012
		c-0.404,0.361-1.291,0.615-2.326,0.615c-1.078,0-1.996-0.273-2.375-0.659v0.015c-0.565-0.59-1.358-0.961-2.241-0.961
		c-1.722,0-3.117,1.396-3.117,3.118c0,0.883,0.371,1.676,0.961,2.244h-0.025c0.385,0.377,0.66,1.295,0.66,2.373
		c0,1.035-0.254,1.922-0.615,2.326h0.023c-0.613,0.568-1.004,1.376-1.004,2.278s0.389,1.709,1.002,2.278h-0.027
		c0.363,0.403,0.615,1.289,0.615,2.326c0,1.077-0.273,1.995-0.658,2.373h0.014c-0.59,0.566-0.961,1.359-0.961,2.242
		c0,1.723,1.396,3.117,3.119,3.117c1.721,0,3.117-1.396,3.117-3.117c0-0.883-0.371-1.676-0.961-2.242h0.022
		c-0.387-0.378-0.659-1.296-0.659-2.373c0-1.037,0.254-1.923,0.614-2.326h-0.006c0.613-0.568,1.002-1.376,1.002-2.278
		s-0.391-1.71-1.004-2.278h0.013c-0.361-0.404-0.615-1.291-0.615-2.326c0-1.078,0.272-1.996,0.66-2.373h-0.015
		c0.033-0.031,0.058-0.07,0.086-0.103v0.038c0.379-0.387,1.297-0.66,2.375-0.66c1.035,0,1.922,0.253,2.326,0.615v-0.023
		c0.568,0.612,1.375,1.004,2.279,1.004c0.896,0,1.699-0.386,2.268-0.992v0.012c0.404-0.362,1.291-0.615,2.326-0.615
		c0.996,0,1.836,0.239,2.258,0.579c0.027,0.013,0.052,0.035,0.076,0.053c0.01,0.01,0.029,0.018,0.041,0.028V26.12
		c0.027,0.028,0.062,0.05,0.09,0.078h-0.021c0.387,0.377,0.662,1.295,0.662,2.373c0,1.072-0.271,1.987-0.654,2.368
		c-0.582,0.566-0.953,1.351-0.953,2.227c0,0.902,0.389,1.71,1.004,2.279H42.23c0.362,0.402,0.617,1.289,0.617,2.324
		c0,1.078-0.275,1.996-0.66,2.375h0.014c-0.59,0.566-0.959,1.359-0.959,2.242c0,1.723,1.396,3.117,3.117,3.117
		s3.117-1.396,3.117-3.117c0-0.883-0.371-1.676-0.959-2.242h0.021V40.143z"/>
	<path fill="#C0272D" d="M16.779,48.366c-1.723,0-3.117,1.396-3.117,3.118c0,1.722,1.396,3.117,3.117,3.117
		c1.721,0,3.117-1.396,3.117-3.117C19.896,49.762,18.5,48.366,16.779,48.366 M16.801,30.081c-0.905,0-1.715,0.394-2.284,1.012
		v-0.075c-0.461,0.386-1.58,0.659-2.896,0.659c-1.395,0-2.562-0.31-2.963-0.732c-0.559-0.528-1.299-0.863-2.127-0.863
		c-1.721,0-3.117,1.396-3.117,3.118c0,1.721,1.396,3.116,3.117,3.116c0.801,0,1.518-0.315,2.07-0.813
		c0.34-0.455,1.557-0.793,3.02-0.793c1.314,0,2.435,0.272,2.896,0.66v-0.062c0.569,0.615,1.379,1.01,2.284,1.01
		c1.724,0,3.117-1.396,3.117-3.117C19.918,31.477,18.523,30.081,16.801,30.081 M24.121,8.421c0.521,0.539,1.244,0.88,2.053,0.88
		c1.574,0,2.853-1.277,2.853-2.852c0-1.575-1.277-2.85-2.853-2.85c-0.809,0-1.532,0.339-2.053,0.878V4.456
		c-0.344,0.353-1.184,0.603-2.17,0.603c-0.947,0-1.758-0.231-2.127-0.562v0.021C19.303,3.956,18.566,3.6,17.74,3.6
		c-1.574,0-2.852,1.274-2.852,2.85c0,1.574,1.276,2.852,2.852,2.852c0.826,0,1.562-0.357,2.084-0.919v0.012
		c0.369-0.331,1.18-0.563,2.127-0.563c0.986,0,1.826,0.25,2.17,0.604V8.421z M16.84,11.616c-1.721,0-3.114,1.396-3.114,3.117
		c0,0.903,0.389,1.71,1.004,2.279h-0.015c0.363,0.402,0.615,1.29,0.615,2.325c0,1.078-0.271,1.996-0.658,2.373h0.015
		c-0.033,0.032-0.058,0.07-0.088,0.103v-0.037c-0.377,0.386-1.298,0.659-2.373,0.659c-1.035,0-1.925-0.253-2.326-0.615v0.024
		c-0.568-0.614-1.375-1.005-2.279-1.005c-1.721,0-3.117,1.396-3.117,3.117c0,1.723,1.396,3.118,3.117,3.118
		c0.904,0,1.711-0.39,2.279-1.004v0.012c0.401-0.361,1.291-0.614,2.326-0.614c1.075,0,1.996,0.272,2.373,0.658v-0.015
		c0.567,0.59,1.36,0.961,2.241,0.961c1.724,0,3.119-1.396,3.119-3.117c0-0.884-0.371-1.677-0.961-2.245h0.025
		c-0.387-0.377-0.66-1.295-0.66-2.373c0-1.035,0.254-1.923,0.615-2.325h-0.023c0.613-0.569,1.004-1.376,1.004-2.279
		C19.959,13.011,18.562,11.616,16.84,11.616 M25.91,48.445c-1.723,0-3.117,1.396-3.117,3.119c0,0.883,0.369,1.676,0.959,2.242
		h-0.022c0.385,0.377,0.658,1.297,0.658,2.375c0,1.034-0.253,1.922-0.613,2.324h0.022c-0.612,0.569-1.004,1.376-1.004,2.279
		c0,1.723,1.396,3.117,3.117,3.117c1.721,0,3.117-1.396,3.117-3.117c0-0.903-0.391-1.71-1.004-2.279h0.012
		c-0.363-0.402-0.615-1.29-0.615-2.324c0-1.078,0.273-1.998,0.66-2.375h-0.014c0.59-0.566,0.961-1.359,0.961-2.242
		C29.027,49.842,27.631,48.445,25.91,48.445 M17.637,56.864c-1.197,0-2.168,0.971-2.168,2.169c0,1.197,0.971,2.17,2.168,2.17
		c1.198,0,2.172-0.973,2.172-2.17C19.809,57.835,18.836,56.864,17.637,56.864 M50.324,14.704c0,0.882,0.369,1.676,0.961,2.243
		h-0.027c0.388,0.378,0.66,1.296,0.66,2.374c0,1.035-0.252,1.922-0.614,2.325h0.024c-0.615,0.569-1.004,1.376-1.004,2.28
		c0,1.721,1.396,3.116,3.117,3.116c1.721,0,3.117-1.396,3.117-3.116c0-0.904-0.392-1.711-1.007-2.28h0.015
		c-0.363-0.403-0.615-1.29-0.615-2.325c0-1.078,0.273-1.996,0.66-2.374h-0.016c0.592-0.567,0.963-1.361,0.963-2.243
		c0-1.722-1.396-3.118-3.117-3.118C51.719,11.585,50.324,12.982,50.324,14.704 M61.092,18.062c1.199,0,2.171-0.972,2.171-2.169
		c0-1.198-0.972-2.17-2.171-2.17c-1.196,0-2.17,0.972-2.17,2.17C58.922,17.09,59.895,18.062,61.092,18.062 M12.652,43.6
		c0.945,0,1.758,0.23,2.125,0.562V44.15c0.521,0.562,1.26,0.918,2.084,0.918c1.576,0,2.852-1.275,2.852-2.852
		c0-1.572-1.274-2.851-2.852-2.851c-0.824,0-1.562,0.356-2.084,0.918v-0.022c-0.367,0.332-1.18,0.563-2.125,0.563
		c-0.986,0-1.826-0.251-2.172-0.604v0.022c-0.521-0.539-1.244-0.878-2.054-0.878c-1.571,0-2.85,1.277-2.85,2.851
		c0,0.808,0.338,1.533,0.877,2.052H6.443c0.352,0.347,0.602,1.187,0.602,2.172c0,0.946-0.229,1.759-0.562,2.127h0.012
		c-0.561,0.521-0.918,1.258-0.918,2.084c0,1.574,1.277,2.851,2.85,2.851c1.576,0,2.853-1.276,2.853-2.851
		c0-0.826-0.357-1.563-0.918-2.084h0.021c-0.332-0.368-0.562-1.181-0.562-2.127c0-0.985,0.25-1.825,0.604-2.172h-0.032
		c0.028-0.026,0.063-0.049,0.092-0.078v0.012C10.826,43.85,11.666,43.6,12.652,43.6 M9.365,18.062c1.199,0,2.17-0.972,2.17-2.169
		c0-1.198-0.971-2.17-2.17-2.17c-1.197,0-2.17,0.972-2.17,2.17C7.195,17.09,8.168,18.062,9.365,18.062 M25.922,11.97
		c-1.721,0-3.116,1.396-3.116,3.116c0,1.723,1.396,3.118,3.116,3.118c1.724,0,3.119-1.396,3.119-3.118
		C29.041,13.366,27.645,11.97,25.922,11.97 M52.715,56.864c-1.196,0-2.168,0.971-2.168,2.169c0,1.197,0.972,2.17,2.168,2.17
		c1.199,0,2.17-0.973,2.17-2.17C54.885,57.835,53.914,56.864,52.715,56.864 M64.912,30.855c-0.363-0.403-0.615-1.29-0.615-2.326
		c0-1.077,0.273-1.995,0.66-2.373h-0.014c0.59-0.568,0.961-1.361,0.961-2.244c0-1.722-1.396-3.118-3.117-3.118
		s-3.117,1.396-3.117,3.118c0,0.883,0.371,1.676,0.961,2.244h-0.024c0.387,0.378,0.658,1.296,0.658,2.373
		c0,1.036-0.252,1.923-0.613,2.326h0.022c-0.612,0.568-1.004,1.376-1.004,2.279c0,1.722,1.396,3.117,3.117,3.117
		s3.117-1.396,3.117-3.117c0-0.903-0.391-1.711-1.004-2.279H64.912z M51.879,9.79c1.197,0,2.168-0.971,2.168-2.169
		c0-1.199-0.971-2.17-2.168-2.17c-1.198,0-2.17,0.971-2.17,2.17C49.709,8.819,50.68,9.79,51.879,9.79 M61.801,39.994
		c-1.571,0-2.85,1.275-2.85,2.851c0,0.826,0.357,1.563,0.918,2.085h-0.012c0.332,0.367,0.562,1.18,0.562,2.127
		c0,0.984-0.25,1.824-0.602,2.172h0.012c-0.029,0.026-0.051,0.062-0.08,0.092v-0.034c-0.346,0.353-1.184,0.603-2.17,0.603
		c-0.947,0-1.758-0.23-2.127-0.562v0.022c-0.52-0.562-1.258-0.918-2.084-0.918c-1.574,0-2.852,1.275-2.852,2.851
		s1.276,2.851,2.852,2.851c0.826,0,1.564-0.355,2.084-0.918v0.012c0.369-0.33,1.18-0.562,2.127-0.562c0.986,0,1.824,0.25,2.17,0.604
		V53.25c0.521,0.539,1.244,0.878,2.051,0.878c1.576,0,2.853-1.276,2.853-2.851c0-0.809-0.338-1.533-0.879-2.051h0.022
		c-0.354-0.348-0.604-1.188-0.604-2.172c0-0.947,0.229-1.76,0.562-2.128h-0.021c0.561-0.521,0.918-1.258,0.918-2.084
		C64.652,41.27,63.377,39.994,61.801,39.994 M53.441,45.581c1.721,0,3.117-1.396,3.117-3.117c0-0.903-0.392-1.71-1.007-2.278h0.015
		c-0.363-0.403-0.615-1.289-0.615-2.326c0-1.077,0.273-1.995,0.66-2.373h-0.016c0.592-0.567,0.963-1.36,0.963-2.243
		c0-1.722-1.396-3.118-3.117-3.118c-1.724,0-3.117,1.396-3.117,3.118c0,0.883,0.371,1.676,0.961,2.243h-0.027
		c0.388,0.378,0.66,1.296,0.66,2.373c0,1.037-0.252,1.923-0.614,2.326h0.024c-0.615,0.568-1.004,1.375-1.004,2.278
		C50.324,44.184,51.719,45.581,53.441,45.581 M35.076,7.232c1.721,0,3.117-1.396,3.117-3.117c0-1.721-1.396-3.117-3.117-3.117
		s-3.117,1.396-3.117,3.117C31.959,5.836,33.355,7.232,35.076,7.232 M35.078,18.159c0.904,0,1.709-0.39,2.279-1.004v0.024
		c0.401-0.362,1.291-0.615,2.326-0.615c1.075,0,1.993,0.272,2.373,0.66v-0.026c0.565,0.591,1.358,0.961,2.241,0.961
		c1.724,0,3.119-1.395,3.119-3.117c0-0.883-0.371-1.676-0.961-2.243h0.017c-0.388-0.378-0.66-1.296-0.66-2.373
		c0-1.035,0.254-1.924,0.614-2.326h-0.012c0.614-0.57,1.005-1.377,1.005-2.28c0-1.722-1.395-3.117-3.116-3.117
		c-1.723,0-3.117,1.396-3.117,3.117c0,0.903,0.389,1.71,1.004,2.279h-0.025c0.363,0.402,0.615,1.291,0.615,2.326
		c0,1.077-0.273,1.995-0.658,2.373h0.037c-0.033,0.031-0.07,0.055-0.102,0.087v-0.014c-0.379,0.386-1.298,0.659-2.373,0.659
		c-1.035,0-1.925-0.253-2.326-0.615v0.014c-0.57-0.615-1.375-1.006-2.279-1.006c-1.721,0-3.117,1.396-3.117,3.118
		C31.961,16.764,33.357,18.159,35.078,18.159 M39.695,53.083c1.037,0,1.924,0.253,2.326,0.615v-0.023
		c0.567,0.613,1.377,1.005,2.278,1.005c1.724,0,3.117-1.396,3.117-3.117c0-1.723-1.395-3.119-3.117-3.119
		c-0.901,0-1.711,0.392-2.278,1.005v-0.013c-0.402,0.362-1.289,0.615-2.326,0.615c-1.078,0-1.996-0.273-2.373-0.66v0.016
		c-0.566-0.59-1.361-0.961-2.242-0.961c-1.723,0-3.119,1.396-3.119,3.119c0,0.906,0.396,1.716,1.013,2.285h-0.074
		c0.385,0.463,0.658,1.588,0.658,2.907c0,1.269-0.254,2.354-0.615,2.851h0.022c-0.612,0.568-1.004,1.375-1.004,2.277
		c0,1.723,1.396,3.117,3.119,3.117c1.721,0,3.117-1.396,3.117-3.117c0-0.902-0.391-1.709-1.004-2.277h0.012
		c-0.363-0.494-0.615-1.582-0.615-2.851c0-1.239,0.242-2.3,0.591-2.809c0.016-0.034,0.039-0.066,0.062-0.099h-0.057
		c0.051-0.049,0.09-0.104,0.137-0.154v0.048C37.699,53.357,38.617,53.083,39.695,53.083 M44.422,57.581
		c-1.721,0-3.116,1.396-3.116,3.117s1.396,3.116,3.116,3.116c1.724,0,3.117-1.396,3.117-3.116
		C47.539,58.977,46.145,57.581,44.422,57.581"/>
	<path fill="#C0272D" d="M100.473,22.031c0.604-3.396,0.282-5.964-0.964-7.703c-1.262-1.659-3.467-2.487-6.614-2.487h-5.924
		c-0.599,0-1.146,0.207-1.638,0.622c-0.494,0.414-0.793,0.918-0.896,1.511l-3.25,18.249h6.938c1.955,0,3.437-0.139,4.441-0.415
		c1.047-0.276,2.068-0.75,3.063-1.422c1.181-0.789,2.222-1.936,3.125-3.437C99.578,25.488,100.148,23.848,100.473,22.031
		 M96.164,22.031c-0.422,2.37-1.156,4.029-2.203,4.978c-1.1,1.027-2.627,1.54-4.582,1.54h-3.407l2.342-13.153h3.949
		c1.754,0,2.936,0.533,3.543,1.6C96.451,18.061,96.572,19.74,96.164,22.031 M143.449,11.84h-3.352c-0.998,0-1.757,0.453-2.275,1.362
		l-10.207,19.02h4.486l2.063-4.207h8.019l0.627,4.207h4.485L143.449,11.84z M135.916,24.579l4.41-8.65l1.332,8.65H135.916z
		 M110.447,11.84c-0.998,0-1.758,0.453-2.277,1.362l-10.207,19.02h4.488l2.064-4.207h8.018l0.627,4.207h4.486l-3.851-20.382H110.447
		z M106.264,24.579l4.411-8.65l1.332,8.65H106.264z M133.729,15.454l0.643-3.613h-14.238c-0.6,0-1.145,0.207-1.637,0.622
		c-0.494,0.414-0.793,0.918-0.896,1.511l-0.265,1.48h6.103l-2.986,16.769h4.248l2.986-16.769H133.729z"/>
	<path fill="#FFFFFF" d="M95.32,34.205l-6.842,15.581l-1.295-15.581h-4.127c-0.607,0.039-1.154,0.268-1.648,0.681
		c-0.492,0.415-0.791,0.919-0.896,1.511l-3.248,18.25h3.948l2.933-16.473l1.313,16.473h4.367l7.121-16.473l-2.932,16.473h3.946
		l3.642-20.44L95.32,34.205L95.32,34.205z M159.662,45.639h5.863c0.598,0,1.143-0.207,1.635-0.621
		c0.494-0.416,0.793-0.918,0.898-1.512l0.241-1.363h-8.016l0.779-4.384h10.77l0.623-3.495h-12.803c-0.6,0-1.146,0.207-1.637,0.621
		c-0.494,0.415-0.793,0.92-0.896,1.512l-3.25,18.248h14.957l0.674-3.791h-10.768L159.662,45.639z M111.77,34.264
		c-0.996,0-1.756,0.454-2.275,1.362L99.287,54.645h4.486l2.065-4.205h8.017l0.627,4.205h4.488l-3.851-20.381H111.77z
		 M107.588,47.002l4.412-8.65l1.332,8.65H107.588z M188.184,35.686c-0.908-0.947-2.479-1.422-4.711-1.422h-7.839
		c-0.598,0-1.145,0.207-1.637,0.621c-0.492,0.415-0.793,0.92-0.896,1.512l-3.25,18.248h4.248l1.414-7.938H180
		c1.115,0,1.855,0.218,2.217,0.651c0.308,0.515,0.396,1.363,0.267,2.548l-0.332,2.192c-0.041,0.236-0.078,0.672-0.111,1.303
		c-0.037,0.437,0.008,0.851,0.137,1.244h4.666c-0.323-0.196-0.481-0.651-0.475-1.361c0.002-0.237,0.027-0.493,0.078-0.771
		c0.047-0.275,0.094-0.533,0.137-0.77l0.312-2.43c0.174-1.422,0.133-2.431-0.119-3.021c-0.248-0.633-0.801-1.105-1.662-1.424
		c1.1-0.354,1.961-0.926,2.58-1.717c0.705-0.83,1.17-1.877,1.396-3.142C189.426,38.115,189.125,36.673,188.184,35.686
		 M184.758,40.484c-0.161,0.91-0.541,1.58-1.137,2.016c-0.598,0.436-1.434,0.65-2.51,0.65h-4.965l0.959-5.392h5.205
		c0.957,0,1.633,0.236,2.026,0.711C184.781,38.905,184.918,39.577,184.758,40.484 M154.445,35.922
		c-0.881-1.105-2.418-1.658-4.611-1.658h-7c-0.598,0-1.143,0.207-1.637,0.621c-0.492,0.415-0.791,0.92-0.896,1.512l-3.247,18.248
		h4.247l1.298-7.287h5.205c2.032,0,3.688-0.553,4.961-1.658c1.289-1.186,2.114-2.805,2.479-4.858
		C155.631,38.668,155.365,37.029,154.445,35.922 M151.078,40.721c-0.19,1.067-0.584,1.817-1.18,2.252
		c-0.562,0.475-1.402,0.711-2.519,0.711h-4.129l1.045-5.865h4.367c0.916,0,1.611,0.236,2.086,0.712
		C151.131,39.083,151.24,39.812,151.078,40.721 M137.627,35.922c-0.881-1.105-2.418-1.658-4.61-1.658h-7
		c-0.599,0-1.146,0.207-1.638,0.621c-0.491,0.415-0.791,0.92-0.896,1.512l-3.248,18.248h4.246l1.299-7.287h5.205
		c2.033,0,3.688-0.553,4.963-1.658c1.287-1.186,2.113-2.805,2.479-4.858C138.812,38.668,138.547,37.029,137.627,35.922
		 M134.26,40.721c-0.19,1.067-0.584,1.817-1.18,2.252c-0.562,0.475-1.401,0.711-2.52,0.711h-4.127l1.043-5.865h4.369
		c0.916,0,1.61,0.236,2.086,0.712C134.312,39.083,134.422,39.812,134.26,40.721"/>
</g>
</svg>
