<?xml version="1.0" encoding="utf-8"?>
<!-- Generator: Adobe Illustrator 15.1.0, SVG Export Plug-In  -->
<!DOCTYPE svg PUBLIC "-//W3C//DTD SVG 1.1//EN" "http://www.w3.org/Graphics/SVG/1.1/DTD/svg11.dtd" [
	<!ENTITY ns_flows "http://ns.adobe.com/Flows/1.0/">
]>
<svg version="1.1"
	 xmlns="http://www.w3.org/2000/svg" xmlns:xlink="http://www.w3.org/1999/xlink" xmlns:a="http://ns.adobe.com/AdobeSVGViewerExtensions/3.0/"
	 x="0px" y="0px" width="462px" height="208px" viewBox="-14.033 -7.354 462 208"
	 overflow="visible" enable-background="new -14.033 -7.354 462 208" xml:space="preserve">
<defs>
</defs>
<polygon fill="#00457D" points="178.233,105.186 158.335,58.635 149.808,102.719 136.814,102.719 152.569,22.748 157.011,22.748 
	180.466,78.018 204.015,22.748 208.466,22.748 223.784,102.719 210.272,102.719 202.144,58.639 182.597,105.186 "/>
<rect x="226.88" y="22.748" fill="#00457D" width="13.51" height="79.971"/>
<polygon fill="#00457D" points="363.683,105.186 343.786,58.637 335.259,102.719 322.265,102.719 338.019,22.748 342.462,22.748 
	365.917,78.018 389.466,22.748 393.917,22.748 409.233,102.719 395.724,102.719 387.595,58.639 368.048,105.186 "/>
<rect x="412.499" y="22.747" fill="#00457D" width="13.51" height="79.972"/>
<polygon fill="#00457D" points="281.037,47.694 305.129,102.72 319.436,102.72 283.354,22.742 279.187,22.742 242.922,102.72 
	257.181,102.72 "/>
<circle fill="#007732" cx="280.924" cy="82.232" r="10.489"/>
<path fill="#00457D" d="M134.617,110.248h3.731l6.07,22.574h-2.908l-1.612-6.197h-7.208l-1.676,6.197h-2.909L134.617,110.248z
	 M133.257,124.348h6.07l-2.877-10.906h-0.063L133.257,124.348z"/>
<path fill="#00457D" d="M153.175,120.84c0-2.15-0.569-3.32-2.498-3.32c-0.854,0-2.75,0.221-2.75,2.592
	c0,1.992,2.086,2.371,4.173,3.068c2.056,0.695,4.142,1.422,4.142,4.773c0,3.572-2.308,5.311-5.47,5.311
	c-5.754,0-5.817-4.268-5.817-6.006h2.656c0,2.055,0.569,3.92,3.161,3.92c0.854,0,2.814-0.41,2.814-2.814
	c0-2.275-2.087-2.75-4.142-3.445c-2.056-0.695-4.174-1.297-4.174-4.807c0-3.16,2.466-4.678,5.406-4.678
	c4.933,0,5.122,3.414,5.153,5.406H153.175z"/>
<path fill="#00457D" d="M166.043,120.84c0-2.15-0.569-3.32-2.498-3.32c-0.854,0-2.75,0.221-2.75,2.592
	c0,1.992,2.086,2.371,4.173,3.068c2.055,0.695,4.142,1.422,4.142,4.773c0,3.572-2.308,5.311-5.47,5.311
	c-5.754,0-5.817-4.268-5.817-6.006h2.656c0,2.055,0.569,3.92,3.161,3.92c0.854,0,2.814-0.41,2.814-2.814
	c0-2.275-2.087-2.75-4.142-3.445c-2.056-0.695-4.174-1.297-4.174-4.807c0-3.16,2.466-4.678,5.406-4.678
	c4.933,0,5.122,3.414,5.153,5.406H166.043z"/>
<path fill="#00457D" d="M176.919,115.434c4.9,0,6.102,4.141,6.102,8.914c0,4.775-1.232,8.916-6.102,8.916
	c-4.901,0-6.102-4.141-6.102-8.916C170.817,119.574,172.05,115.434,176.919,115.434z M180.239,124.348
	c0-3.666-0.539-6.828-3.385-6.828c-2.686,0-3.256,3.162-3.256,6.828c0,3.668,0.537,6.83,3.256,6.83
	C179.669,131.178,180.239,128.016,180.239,124.348z"/>
<path fill="#00457D" d="M193.737,121.029c0-1.645-0.664-3.51-2.688-3.51c-1.643,0-3.318,0.822-3.318,7.02
	c0,2.213,0.031,6.639,3.225,6.639c2.275,0,2.781-2.402,2.781-4.236h2.656c0,2.688-1.328,6.322-5.564,6.322
	c-4.141,0-5.881-2.877-5.881-8.693c0-4.236,0.822-9.137,6.039-9.137c4.615,0,5.406,3.635,5.406,5.596H193.737z"/>
<path fill="#00457D" d="M199.302,110.248h2.656v3.035h-2.656V110.248z M199.302,115.875h2.656v16.947h-2.656V115.875z"/>
<path fill="#00457D" d="M205.183,120.998c0-3.857,1.645-5.564,5.691-5.564c5.152,0,5.152,3.098,5.152,4.867v9.455
	c0,0.695,0,1.359,0.822,1.359c0.348,0,0.506-0.064,0.633-0.158v1.896c-0.189,0.031-0.885,0.158-1.549,0.158
	c-1.012,0-2.277,0-2.402-2.182h-0.064c-0.854,1.518-2.498,2.434-4.078,2.434c-3.162,0-4.615-1.896-4.615-4.932
	c0-2.371,1.012-4.016,3.193-4.68l3.572-1.074c1.928-0.602,1.928-1.139,1.928-2.561c0-1.582-0.947-2.498-2.719-2.498
	c-2.908,0-2.908,2.719-2.908,3.32v0.158H205.183z M213.372,123.59c-0.98,1.043-3.32,1.264-4.521,1.992
	c-0.854,0.537-1.297,1.201-1.297,2.688c0,1.707,0.602,2.908,2.402,2.908c1.74,0,3.416-1.486,3.416-3.225V123.59z"/>
<path fill="#00457D" d="M220.729,110.943h2.656v4.932h2.939v2.088h-2.939v10.875c0,1.359,0.348,1.896,1.738,1.896
	c0.57,0,0.887-0.062,1.17-0.094v2.182c-0.348,0.062-1.043,0.189-2.15,0.189c-2.75,0-3.414-1.139-3.414-3.352v-11.697h-2.465v-2.088
	h2.465V110.943z"/>
<path fill="#00457D" d="M228.286,110.248h2.656v3.035h-2.656V110.248z M228.286,115.875h2.656v16.947h-2.656V115.875z"/>
<path fill="#00457D" d="M239.856,115.434c4.9,0,6.104,4.141,6.104,8.914c0,4.775-1.234,8.916-6.104,8.916
	c-4.9,0-6.102-4.141-6.102-8.916C233.755,119.574,234.987,115.434,239.856,115.434z M243.177,124.348
	c0-3.666-0.537-6.828-3.383-6.828c-2.688,0-3.256,3.162-3.256,6.828c0,3.668,0.537,6.83,3.256,6.83
	C242.608,131.178,243.177,128.016,243.177,124.348z"/>
<path fill="#00457D" d="M248.614,115.875h2.529v1.992h0.062c0.697-1.549,2.467-2.434,4.111-2.434c4.457,0,4.457,3.383,4.457,5.373
	v12.016h-2.656v-11.699c0-1.295-0.094-3.414-2.496-3.414c-1.424,0-3.352,0.949-3.352,3.414v11.699h-2.656V115.875z"/>
<path fill="#00457D" d="M276.12,115.434c4.9,0,6.104,4.141,6.104,8.914c0,4.775-1.234,8.916-6.104,8.916
	c-4.9,0-6.102-4.141-6.102-8.916C270.019,119.574,271.251,115.434,276.12,115.434z M279.44,124.348c0-3.666-0.537-6.828-3.383-6.828
	c-2.688,0-3.256,3.162-3.256,6.828c0,3.668,0.537,6.83,3.256,6.83C278.872,131.178,279.44,128.016,279.44,124.348z"/>
<path fill="#00457D" d="M285.669,117.963h-2.467v-2.088h2.467v-1.992c0-2.561,1.105-3.889,3.666-3.889h1.93v2.277h-1.232
	c-1.139,0-1.709,0.441-1.709,1.611v1.992h2.91v2.088h-2.91v14.859h-2.654V117.963z"/>
<path fill="#00457D" d="M300.749,110.248h7.303c3.541,0,5.785,2.086,5.785,5.658c0,2.467-0.854,5.059-3.477,5.691v0.064
	c1.959,0.221,3.066,1.832,3.193,3.762l0.189,3.857c0.125,2.498,0.537,3.129,1.201,3.541h-3.352c-0.475-0.475-0.695-2.15-0.76-3.258
	l-0.189-3.508c-0.221-3.1-1.928-3.289-3.352-3.289h-3.762v10.055h-2.781V110.248z M303.53,120.492h2.75c1.645,0,4.648,0,4.648-4.363
	c0-2.213-1.486-3.605-4.078-3.605h-3.32V120.492z"/>
<path fill="#00457D" d="M317.157,110.248h11.666v2.465h-8.885v7.082h8.379v2.467h-8.379v8.094h9.264v2.467h-12.045V110.248z"/>
<path fill="#00457D" d="M336.222,110.248h3.73l6.07,22.574h-2.908l-1.613-6.197h-7.209l-1.676,6.197h-2.908L336.222,110.248z
	 M334.862,124.348h6.07l-2.877-10.906h-0.064L334.862,124.348z"/>
<path fill="#00457D" d="M347.603,110.248h2.783v20.107h9.168v2.467h-11.951V110.248z"/>
<path fill="#00457D" d="M365.528,132.822h-2.781v-20.109h-5.66v-2.465h14.133v2.465h-5.691V132.822z"/>
<path fill="#00457D" d="M387.534,121.535c0,5.691-1.043,11.729-7.271,11.729s-7.271-6.037-7.271-11.729s1.043-11.73,7.271-11.73
	S387.534,115.844,387.534,121.535z M375.899,121.535c0,5.217,0.506,9.453,4.363,9.453s4.363-4.236,4.363-9.453
	s-0.506-9.453-4.363-9.453S375.899,116.318,375.899,121.535z"/>
<path fill="#00457D" d="M390.886,110.248h7.303c3.541,0,5.785,2.086,5.785,5.658c0,2.467-0.854,5.059-3.477,5.691v0.064
	c1.959,0.221,3.066,1.832,3.193,3.762l0.189,3.857c0.125,2.498,0.537,3.129,1.201,3.541h-3.352c-0.475-0.475-0.695-2.15-0.76-3.258
	l-0.189-3.508c-0.221-3.1-1.928-3.289-3.352-3.289h-3.762v10.055h-2.781V110.248z M393.667,120.492h2.75
	c1.645,0,4.648,0,4.648-4.363c0-2.213-1.486-3.605-4.078-3.605h-3.32V120.492z"/>
<path fill="#00457D" d="M416.874,116.098c0-2.373-0.854-4.016-3.51-4.016c-2.34,0-3.73,1.264-3.73,3.666
	c0,6.355,10.654,2.562,10.654,10.814c0,5.217-3.826,6.701-7.018,6.701c-5.281,0-6.83-2.719-6.83-7.523h2.783
	c0,2.529,0.156,5.248,4.236,5.248c2.213,0,3.92-1.582,3.92-3.984c0-6.387-10.654-2.688-10.654-10.971
	c0-2.086,0.885-6.229,6.607-6.229c4.299,0,6.26,2.15,6.322,6.293H416.874z"/>
<path fill="#00457D" d="M425.187,110.639c0.48,0.48,0.738,1.126,0.738,1.814c0,0.703-0.258,1.334-0.745,1.808
	c-0.51,0.495-1.155,0.768-1.829,0.768c-0.682,0-1.319-0.272-1.814-0.768c-0.487-0.487-0.753-1.126-0.753-1.808
	c0-0.681,0.272-1.334,0.774-1.836c0.474-0.48,1.098-0.738,1.793-0.738C424.054,109.879,424.691,110.145,425.187,110.639z
	 M424.972,110.854c-0.438-0.438-0.997-0.667-1.621-0.667c-0.609,0-1.162,0.222-1.578,0.646c-0.444,0.444-0.681,1.018-0.681,1.62
	c0,0.596,0.236,1.155,0.667,1.593c0.43,0.438,0.996,0.667,1.585,0.667c0.609,0,1.176-0.229,1.62-0.667
	c0.424-0.416,0.66-0.969,0.66-1.578C425.624,111.851,425.395,111.277,424.972,110.854z M424.648,111.751
	c0,0.408-0.258,0.71-0.688,0.781l0.66,1.349h-0.553l-0.616-1.276h-0.624v1.276h-0.495v-2.94h1.09
	C424.24,110.94,424.648,111.198,424.648,111.751z M422.827,111.263v1.019h0.517c0.545,0,0.796-0.122,0.796-0.495
	c0-0.38-0.259-0.523-0.811-0.523H422.827z"/>
<path fill="#B1B3B4" d="M102.221,110.094c19.902-9.24,33.358-26.85,33.358-47.068c0-29.797-29.209-53.951-65.24-53.951
	S5.098,33.229,5.098,63.025c0,3.756,0.466,7.42,1.349,10.958l-5.218-2.437L0,71.345v2.937c0,0,3.695,1.972,7.75,3.967
	c7.948,22.383,32.953,38.73,62.589,38.73c10.819,0,21.014-2.191,29.997-6.047c25.464,70.652,78.097,81.19,78.097,81.19v-2.747
	C125.73,171.719,103.162,112.612,102.221,110.094z"/>
<ellipse fill="#ECEDED" cx="70.338" cy="60.166" rx="65.24" ry="53.953"/>
<ellipse fill="#003968" cx="70.338" cy="60.166" rx="62.074" ry="51.334"/>
<path fill="#ECEDED" d="M178.433,189.375C125.162,172.5,106.9,127.408,99.31,104.65c-6.271-18.803-8.083-35.01-8.59-41.711
	c-2.017,2.906-4.994,8.117-5.711,14.37c-0.161,0.974-0.902,1.948-2.528,1.948c-0.904,0-2.038-0.307-3.281-0.887
	c-2.306-1.076-9.164-4.715-11.363-6.229l-0.391-0.269l-0.105-0.464c-1.362-5.995-3.874-25.688-3.519-38.19
	C44.635,70.973,20.026,80.131,18.935,80.521l-0.493,0.176L0,71.345l2.728-0.935C3.045,70.302,34.809,58.869,59.63,2.014
	C60.109,0.699,60.878,0,61.888,0c0.564,0,1.028,0.23,1.401,0.416l0.215,0.104c0.319,0.148,2.024,0.994,4.12,2.037
	c3.153,1.566,7.472,3.713,8.821,4.34c3.536,1.645,4.089,5.047,4.355,6.683c0.867,5.332,2.074,12.487,2.95,17.646
	c0.648-3.257,1.374-6.657,1.742-7.56c0.306-0.752,0.876-2.149,2.316-2.149c0.674,0,1.338,0.328,2.075,0.725
	c0.578,0.312,2.255,1.258,4.301,2.413c3.65,2.062,8.649,4.885,10.364,5.763c3.43,1.755,2.615,5.183,2.128,7.231l-0.061,0.256
	C106.407,38.796,82.912,143.917,178.433,189.375z"/>
<path fill="#007732" d="M3.12,71.562c0,0,32.25-10.938,57.625-69.062c0.688-1.875,1.438-1.25,2.25-0.875S73.7,6.961,75.933,8
	c2.678,1.246,3.314,3.602,3.667,5.774c1.531,9.409,4.083,24.288,4.083,24.288s2.25-12.25,2.938-13.938s1.062-1.688,2.688-0.812
	s12,6.812,14.688,8.188s1.938,4,1.438,6.125S85.495,128.5,155.87,177.875C93.62,139.25,91.745,59.625,91.745,59.625
	s-6.779,7.381-7.946,17.546c-0.194,1.167-1.896,1.119-4.085,0.098s-8.998-4.621-11.187-6.129c-1.702-7.49-4.961-34.825-2.821-44.651
	C46.183,69.5,18.526,79.375,18.526,79.375L3.12,71.562z"/>
</svg>
